HIERARCHY
ROOT mixamorig:Hips
{
	OFFSET 0.000000 201.639420 0.000000
	CHANNELS 6 Xposition Yposition Zposition Xrotation Yrotation Zrotation
	JOINT mixamorig:Spine
	{
		OFFSET 0.006200 19.524994 -2.481800
		CHANNELS 3 Xrotation Yrotation Zrotation
		JOINT mixamorig:Spine1
		{
			OFFSET -0.000900 22.835007 -2.825400
			CHANNELS 3 Xrotation Yrotation Zrotation
			JOINT mixamorig:Spine2
			{
				OFFSET -0.020600 26.552490 -3.193300
				CHANNELS 3 Xrotation Yrotation Zrotation
				JOINT mixamorig:Neck
				{
					OFFSET -0.060000 30.701813 1.352200
					CHANNELS 3 Xrotation Yrotation Zrotation
					JOINT mixamorig:Head
					{
						OFFSET -0.087200 22.547607 3.670900
						CHANNELS 3 Xrotation Yrotation Zrotation
						JOINT mixamorig:HeadTop_End
						{
							OFFSET -0.830600 40.355194 7.893500
							CHANNELS 3 Xrotation Yrotation Zrotation
							End Site
							{
								OFFSET 0.000000 30.592346 0.000000
							}
						}
						JOINT mixamorig:RightEye
						{
							OFFSET -6.302100 18.118591 16.197100
							CHANNELS 3 Xrotation Yrotation Zrotation
							End Site
							{
								OFFSET 0.000000 30.592346 0.000000
							}
						}
						JOINT mixamorig:LeftEye
						{
							OFFSET 6.741500 18.382690 16.401899
							CHANNELS 3 Xrotation Yrotation Zrotation
							End Site
							{
								OFFSET 0.000000 30.592346 0.000000
							}
						}
					}
				}
				JOINT mixamorig:LeftShoulder
				{
					OFFSET 11.924900 18.230499 1.425400
					CHANNELS 3 Xrotation Yrotation Zrotation
					JOINT mixamorig:LeftArm
					{
						OFFSET 25.435989 -0.697632 -5.229300
						CHANNELS 3 Xrotation Yrotation Zrotation
						JOINT mixamorig:LeftForeArm
						{
							OFFSET 54.684776 0.000000 0.000000
							CHANNELS 3 Xrotation Yrotation Zrotation
							JOINT mixamorig:LeftHand
							{
								OFFSET 55.098175 0.000000 0.000000
								CHANNELS 3 Xrotation Yrotation Zrotation
								JOINT mixamorig:LeftHandMiddle1
								{
									OFFSET 23.369751 0.000000 0.000000
									CHANNELS 3 Xrotation Yrotation Zrotation
									JOINT mixamorig:LeftHandMiddle2
									{
										OFFSET 6.378677 0.000000 0.000000
										CHANNELS 3 Xrotation Yrotation Zrotation
										JOINT mixamorig:LeftHandMiddle3
										{
											OFFSET 6.148331 0.000000 0.000000
											CHANNELS 3 Xrotation Yrotation Zrotation
											JOINT mixamorig:LeftHandMiddle4
											{
												OFFSET 6.582504 0.000000 0.000000
												CHANNELS 3 Xrotation Yrotation Zrotation
												End Site
												{
													OFFSET -1.168900 6.395691 1.028606
												}
											}
										}
									}
								}
								JOINT mixamorig:LeftHandThumb1
								{
									OFFSET 7.235672 -3.848206 5.434273
									CHANNELS 3 Xrotation Yrotation Zrotation
									JOINT mixamorig:LeftHandThumb2
									{
										OFFSET 6.568451 -3.792297 3.792300
										CHANNELS 3 Xrotation Yrotation Zrotation
										JOINT mixamorig:LeftHandThumb3
										{
											OFFSET 6.063080 -3.500519 3.500518
											CHANNELS 3 Xrotation Yrotation Zrotation
											JOINT mixamorig:LeftHandThumb4
											{
												OFFSET 4.793182 -2.767334 2.767349
												CHANNELS 3 Xrotation Yrotation Zrotation
												End Site
												{
													OFFSET 0.101639 6.054260 1.275483
												}
											}
										}
									}
								}
								JOINT mixamorig:LeftHandIndex1
								{
									OFFSET 23.101074 -0.309540 4.992809
									CHANNELS 3 Xrotation Yrotation Zrotation
									JOINT mixamorig:LeftHandIndex2
									{
										OFFSET 6.226883 0.000000 0.000000
										CHANNELS 3 Xrotation Yrotation Zrotation
										JOINT mixamorig:LeftHandIndex3
										{
											OFFSET 6.094330 0.000000 0.000000
											CHANNELS 3 Xrotation Yrotation Zrotation
											JOINT mixamorig:LeftHandIndex4
											{
												OFFSET 5.482605 0.000000 0.000000
												CHANNELS 3 Xrotation Yrotation Zrotation
												End Site
												{
													OFFSET -1.427902 5.233032 0.797164
												}
											}
										}
									}
								}
								JOINT mixamorig:LeftHandRing1
								{
									OFFSET 22.299240 0.021149 -3.964172
									CHANNELS 3 Xrotation Yrotation Zrotation
									JOINT mixamorig:LeftHandRing2
									{
										OFFSET 6.321869 0.000000 0.000000
										CHANNELS 3 Xrotation Yrotation Zrotation
										JOINT mixamorig:LeftHandRing3
										{
											OFFSET 5.899796 0.000000 0.000000
											CHANNELS 3 Xrotation Yrotation Zrotation
											JOINT mixamorig:LeftHandRing4
											{
												OFFSET 6.517899 0.000000 0.000000
												CHANNELS 3 Xrotation Yrotation Zrotation
												End Site
												{
													OFFSET -1.637299 6.232208 0.980890
												}
											}
										}
									}
								}
								JOINT mixamorig:LeftHandPinky1
								{
									OFFSET 20.463791 -0.302338 -8.562233
									CHANNELS 3 Xrotation Yrotation Zrotation
									JOINT mixamorig:LeftHandPinky2
									{
										OFFSET 6.908646 0.000000 0.000000
										CHANNELS 3 Xrotation Yrotation Zrotation
										JOINT mixamorig:LeftHandPinky3
										{
											OFFSET 4.622849 0.000000 0.000000
											CHANNELS 3 Xrotation Yrotation Zrotation
											JOINT mixamorig:LeftHandPinky4
											{
												OFFSET 5.216080 0.000000 0.000000
												CHANNELS 3 Xrotation Yrotation Zrotation
												End Site
												{
													OFFSET -0.606308 5.116241 0.814926
												}
											}
										}
									}
								}
							}
						}
					}
				}
				JOINT mixamorig:RightShoulder
				{
					OFFSET -12.001300 18.284088 1.348900
					CHANNELS 3 Xrotation Yrotation Zrotation
					JOINT mixamorig:RightArm
					{
						OFFSET -25.308500 -0.751312 -5.164599
						CHANNELS 3 Xrotation Yrotation Zrotation
						JOINT mixamorig:RightForeArm
						{
							OFFSET -54.684429 0.000000 0.000000
							CHANNELS 3 Xrotation Yrotation Zrotation
							JOINT mixamorig:RightHand
							{
								OFFSET -55.150291 0.000000 0.000000
								CHANNELS 3 Xrotation Yrotation Zrotation
								JOINT mixamorig:RightHandMiddle1
								{
									OFFSET -23.317566 0.000000 0.000000
									CHANNELS 3 Xrotation Yrotation Zrotation
									JOINT mixamorig:RightHandMiddle2
									{
										OFFSET -6.378403 0.000000 0.000000
										CHANNELS 3 Xrotation Yrotation Zrotation
										JOINT mixamorig:RightHandMiddle3
										{
											OFFSET -6.148193 0.000000 0.000000
											CHANNELS 3 Xrotation Yrotation Zrotation
											JOINT mixamorig:RightHandMiddle4
											{
												OFFSET -6.583389 0.000000 0.000000
												CHANNELS 3 Xrotation Yrotation Zrotation
												End Site
												{
													OFFSET 1.171692 6.395905 1.029786
												}
											}
										}
									}
								}
								JOINT mixamorig:RightHandThumb1
								{
									OFFSET -7.190521 -3.860474 5.435846
									CHANNELS 3 Xrotation Yrotation Zrotation
									JOINT mixamorig:RightHandThumb2
									{
										OFFSET -6.567429 -3.791718 3.791708
										CHANNELS 3 Xrotation Yrotation Zrotation
										JOINT mixamorig:RightHandThumb3
										{
											OFFSET -6.062469 -3.500153 3.500166
											CHANNELS 3 Xrotation Yrotation Zrotation
											JOINT mixamorig:RightHandThumb4
											{
												OFFSET -4.792618 -2.767029 2.767022
												CHANNELS 3 Xrotation Yrotation Zrotation
												End Site
												{
													OFFSET -0.100327 6.053253 1.276754
												}
											}
										}
									}
								}
								JOINT mixamorig:RightHandIndex1
								{
									OFFSET -23.048981 -0.310791 4.992554
									CHANNELS 3 Xrotation Yrotation Zrotation
									JOINT mixamorig:RightHandIndex2
									{
										OFFSET -6.227539 0.000000 0.000000
										CHANNELS 3 Xrotation Yrotation Zrotation
										JOINT mixamorig:RightHandIndex3
										{
											OFFSET -6.095047 0.000000 0.000000
											CHANNELS 3 Xrotation Yrotation Zrotation
											JOINT mixamorig:RightHandIndex4
											{
												OFFSET -5.484772 0.000000 0.000000
												CHANNELS 3 Xrotation Yrotation Zrotation
												End Site
												{
													OFFSET 1.420593 5.237305 0.797056
												}
											}
										}
									}
								}
								JOINT mixamorig:RightHandRing1
								{
									OFFSET -22.246323 0.020569 -3.963762
									CHANNELS 3 Xrotation Yrotation Zrotation
									JOINT mixamorig:RightHandRing2
									{
										OFFSET -6.322128 0.000000 0.000000
										CHANNELS 3 Xrotation Yrotation Zrotation
										JOINT mixamorig:RightHandRing3
										{
											OFFSET -5.900024 0.000000 0.000000
											CHANNELS 3 Xrotation Yrotation Zrotation
											JOINT mixamorig:RightHandRing4
											{
												OFFSET -6.518356 0.000000 0.000000
												CHANNELS 3 Xrotation Yrotation Zrotation
												End Site
												{
													OFFSET 1.636398 6.232697 0.982186
												}
											}
										}
									}
								}
								JOINT mixamorig:RightHandPinky1
								{
									OFFSET -20.411011 -0.303314 -8.561701
									CHANNELS 3 Xrotation Yrotation Zrotation
									JOINT mixamorig:RightHandPinky2
									{
										OFFSET -6.907349 0.000000 0.000000
										CHANNELS 3 Xrotation Yrotation Zrotation
										JOINT mixamorig:RightHandPinky3
										{
											OFFSET -4.623840 0.000000 0.000000
											CHANNELS 3 Xrotation Yrotation Zrotation
											JOINT mixamorig:RightHandPinky4
											{
												OFFSET -5.218353 0.000000 0.000000
												CHANNELS 3 Xrotation Yrotation Zrotation
												End Site
												{
													OFFSET 0.602097 5.118835 0.816273
												}
											}
										}
									}
								}
							}
						}
					}
				}
			}
		}
	}
	JOINT mixamorig:LeftUpLeg
	{
		OFFSET 18.168400 -13.561905 -0.039000
		CHANNELS 3 Xrotation Yrotation Zrotation
		JOINT mixamorig:LeftLeg
		{
			OFFSET 0.577358 -80.825211 -3.695000
			CHANNELS 3 Xrotation Yrotation Zrotation
			JOINT mixamorig:LeftFoot
			{
				OFFSET -0.577356 -83.370262 -6.520700
				CHANNELS 3 Xrotation Yrotation Zrotation
				JOINT mixamorig:LeftToeBase
				{
					OFFSET 0.750401 -20.798306 25.135401
					CHANNELS 3 Xrotation Yrotation Zrotation
					JOINT mixamorig:LeftToe_End
					{
						OFFSET -0.000500 0.001200 19.917799
						CHANNELS 3 Xrotation Yrotation Zrotation
						End Site
						{
							OFFSET 0.000000 19.917805 0.000000
						}
					}
				}
			}
		}
	}
	JOINT mixamorig:RightUpLeg
	{
		OFFSET -18.162500 -13.585098 -0.041000
		CHANNELS 3 Xrotation Yrotation Zrotation
		JOINT mixamorig:RightLeg
		{
			OFFSET -0.595024 -80.945297 -3.631900
			CHANNELS 3 Xrotation Yrotation Zrotation
			JOINT mixamorig:RightFoot
			{
				OFFSET 0.595024 -83.218193 -6.561200
				CHANNELS 3 Xrotation Yrotation Zrotation
				JOINT mixamorig:RightToeBase
				{
					OFFSET -0.753601 -20.807106 25.115000
					CHANNELS 3 Xrotation Yrotation Zrotation
					JOINT mixamorig:RightToe_End
					{
						OFFSET 0.000299 0.001700 19.918200
						CHANNELS 3 Xrotation Yrotation Zrotation
						End Site
						{
							OFFSET 0.000000 19.918203 0.000000
						}
					}
				}
			}
		}
	}
}
MOTION
Frames: 5
Frame Time: 0.033333
19.934639 183.026993 2.490112 22.256154 -4.450825 1.732299 6.582200 2.106854 3.263201 12.586457 2.847118 3.435168 12.593948 2.876440 3.421941 0.016149 -1.000952 1.844408 -31.293406 -1.341476 -4.569887 0.000001 0.000000 0.000000 0.000001 0.000000 0.000000 0.000001 0.000000 0.000000 0.637574 -2.924530 -7.068080 -16.795244 -40.149840 -68.839441 0.000008 -57.805790 -0.000007 -1.594945 2.326589 17.285547 -0.178613 2.140858 -14.336658 0.381824 2.082167 -20.779908 0.122074 1.190977 -11.704950 -0.000002 0.000001 0.000004 -1.032992 1.389672 -1.089405 19.920163 11.912232 20.957761 -3.157279 30.906664 -0.598475 -0.000002 0.000002 -0.000000 -0.118046 2.568232 -16.247618 0.686102 2.752930 -27.984064 0.176316 1.427892 -14.077908 0.000003 -0.000002 -0.000003 1.009402 5.891104 -21.101301 0.646249 2.676651 -27.142557 0.164263 1.378960 -13.585837 -0.000004 -0.000002 0.000001 8.158883 13.737813 -41.131471 0.466826 2.293548 -23.006401 0.095082 1.052277 -10.325404 -0.000003 0.000001 -0.000001 -0.038923 10.378081 10.747283 -68.099704 24.440592 56.854795 -0.000004 45.307196 0.000006 52.278142 -9.686421 -33.823339 -8.730767 8.825328 35.892122 2.214953 -3.966650 58.343749 0.017836 -0.407634 5.010476 0.000000 -0.000001 -0.000003 18.277562 -1.070551 -1.395371 -18.739392 -20.403488 -0.628726 -0.206222 -14.207263 -8.221695 0.000001 0.000000 0.000001 -0.195196 10.625185 1.615080 3.991965 -4.609494 81.779337 3.315058 -4.459992 73.233288 0.000001 0.000001 -0.000004 -9.650234 3.779512 50.357113 3.306393 -4.457393 73.121936 3.205392 -4.425558 71.817848 -0.000001 0.000001 -0.000001 -17.235040 -9.077206 94.851520 1.135574 -3.049479 40.841225 2.609629 -4.183784 63.893162 -0.000001 -0.000001 0.000000 -59.376023 6.174514 3.750372 51.270542 9.638312 -4.875085 -13.701809 -0.333982 0.932412 0.866751 -6.265668 2.551008 -0.000000 0.000000 -0.000000 -58.986593 -7.532688 -11.716063 51.042861 -4.162940 3.983094 -12.843743 -0.609484 2.860659 -1.647744 0.000008 -0.000004 -0.000000 -0.000000 -0.000000 
20.535295 185.882355 2.975044 20.895123 -4.211411 1.555522 6.400207 2.122495 3.220447 12.308959 3.022056 3.432500 12.313281 3.062242 3.408545 0.089543 -1.109297 1.983412 -30.756086 -2.033113 -4.229131 -0.000001 -0.000000 -0.000001 -0.000001 -0.000000 -0.000001 -0.000001 -0.000000 -0.000001 0.527480 -2.908053 -6.639815 -15.160051 -38.577660 -69.145386 0.000009 -56.512688 0.000011 -0.742938 2.666248 16.208741 -0.405581 1.073605 -13.496155 0.235021 1.644286 -16.267525 0.060324 0.839498 -8.220862 0.000003 0.000000 0.000001 -2.069082 1.457559 -2.122356 19.075960 11.539897 21.530402 -3.188673 30.435323 -0.985130 -0.000001 0.000004 0.000002 -0.537092 1.108762 -16.234386 0.470015 2.301032 -23.085804 0.083733 0.987906 -9.687490 0.000001 -0.000003 -0.000004 0.848073 5.608351 -19.002385 0.601307 2.587266 -26.164418 0.158361 1.354256 -13.337946 0.000001 0.000001 0.000003 6.979953 13.361087 -37.137074 0.471250 2.303950 -23.116804 0.111061 1.136509 -11.162217 -0.000001 -0.000003 0.000003 -0.106240 10.248549 11.948927 -65.317010 24.260839 55.168223 0.000006 44.471399 -0.000002 50.134497 -9.747476 -30.755935 -7.279583 8.302447 32.454679 1.824463 -3.698117 52.506598 0.002885 -0.163827 2.011464 0.000000 0.000002 -0.000002 20.388332 -1.381254 0.875699 -17.747003 -23.243373 -0.572328 -0.391799 -13.627776 -7.702682 0.000000 0.000001 -0.000000 -0.628878 9.423853 3.782476 3.701534 -4.558249 78.146455 3.035523 -4.366309 69.602025 -0.000001 -0.000001 -0.000002 -9.085989 3.760215 48.936704 3.093015 -4.387193 70.355183 2.993708 -4.350540 69.051792 -0.000001 0.000001 -0.000001 -16.886507 -8.221104 92.819395 1.131566 -3.044840 40.765817 2.613180 -4.185531 63.941950 -0.000002 0.000003 0.000000 -55.179015 6.240227 2.686136 46.546913 9.902716 -4.250375 -12.314779 -0.100156 1.219460 1.150291 -6.287320 2.522857 -0.000000 0.000000 0.000000 -54.740558 -8.049614 -11.580554 46.340088 -4.490715 3.936430 -11.676797 -0.629468 3.188894 -1.020061 -0.000014 0.000002 0.000000 0.000000 -0.000000 
21.280933 188.402695 3.659641 19.474389 -4.059965 1.439735 6.229325 2.116433 3.114827 11.978367 3.211630 3.407024 11.982318 3.246840 3.394806 0.154898 -1.205794 1.999679 -30.056971 -2.859105 -3.822268 0.000000 0.000001 -0.000000 0.000000 0.000001 -0.000000 0.000000 0.000001 -0.000000 0.484075 -2.919519 -6.376271 -13.998364 -36.786173 -69.626347 -0.000002 -54.446139 0.000008 0.010269 2.604858 14.893636 -0.606983 0.047091 -12.912597 0.113539 1.148975 -11.286390 0.015201 0.422331 -4.124848 0.000002 0.000002 -0.000000 -3.034048 1.613882 -3.114634 18.279536 11.180665 22.072641 -3.260392 29.924049 -1.341362 0.000001 0.000000 0.000001 -0.853458 0.041579 -16.405425 0.284430 1.804944 -17.909357 0.022381 0.512157 -5.004281 0.000002 0.000002 0.000002 0.747349 5.421934 -17.482231 0.583011 2.549680 -25.755685 0.152715 1.330234 -13.096919 0.000003 -0.000002 0.000001 6.051192 12.886326 -34.139778 0.501982 2.374608 -23.869959 0.130403 1.230472 -12.098870 0.000001 0.000001 0.000000 -0.137927 10.141812 12.841431 -62.595883 23.444920 53.953737 -0.000018 43.781895 0.000012 47.865047 -9.875750 -27.049060 -6.000410 7.863739 28.864745 1.361078 -3.291964 44.916789 0.000582 -0.073850 0.906321 0.000003 -0.000002 0.000002 22.485143 -0.536311 3.484788 -16.596303 -26.806478 -0.264247 -0.925562 -12.534701 -7.072534 -0.000001 -0.000001 -0.000001 -1.045517 8.165512 6.320076 2.970123 -4.341486 68.740465 2.344749 -4.043603 60.202141 0.000002 0.000001 0.000002 -8.705679 4.003535 47.177670 2.994293 -4.350798 69.059134 2.895872 -4.311928 67.756255 0.000001 -0.000001 0.000003 -16.492293 -6.909360 89.514711 1.176423 -3.096034 41.603505 2.683796 -4.219246 64.905601 -0.000001 0.000001 -0.000002 -51.076233 6.238650 1.523473 42.138787 10.122010 -3.460299 -10.886257 0.253256 1.410201 1.290419 -6.299857 2.427756 -0.000000 0.000000 0.000000 -50.571144 -8.383869 -11.363386 41.893696 -4.924389 3.728437 -10.379866 -0.644785 3.572804 -0.433179 -0.000003 -0.000001 -0.000000 -0.000002 -0.000000 
22.181808 190.583618 4.574554 18.128244 -3.941410 1.348900 6.021501 2.109083 2.983108 11.611492 3.398412 3.407985 11.616241 3.423079 3.400249 0.148141 -1.329273 1.850387 -29.120768 -3.745996 -3.292177 -0.000002 -0.000001 0.000000 -0.000002 -0.000001 0.000000 -0.000002 -0.000001 0.000000 0.449885 -2.922048 -6.482788 -13.066125 -34.922942 -69.971620 -0.000010 -51.703548 -0.000012 0.650592 2.426405 13.500379 -0.793110 -0.921883 -12.571641 0.035158 0.641594 -6.273703 0.000012 -0.010624 0.103670 0.000002 -0.000001 0.000000 -3.903307 1.810184 -4.036194 17.560186 10.850164 22.554166 -3.406420 29.303380 -1.643383 0.000003 -0.000001 -0.000001 -1.091767 -0.742505 -16.566875 0.145286 1.297900 -12.773026 0.000119 0.038129 -0.372121 -0.000001 0.000001 0.000001 0.689232 5.317809 -16.426339 0.583945 2.551629 -25.776907 0.147399 1.307162 -12.865808 0.000001 -0.000001 0.000002 5.314402 12.364615 -31.914909 0.553981 2.488653 -25.095003 0.152826 1.330726 -13.101806 0.000002 -0.000001 0.000001 -0.206902 10.148051 13.348219 -59.766040 21.944821 53.065399 -0.000004 43.280870 -0.000010 45.388117 -10.275214 -23.025531 -4.995787 7.520609 25.620818 0.863664 -2.703560 35.426941 0.001079 -0.099998 1.227739 0.000001 -0.000002 0.000005 24.304666 1.715167 5.954666 -15.531080 -30.632357 0.242081 -1.702839 -11.159475 -6.442955 0.000001 0.000001 0.000001 -1.378095 7.079679 8.807805 1.933704 -3.779215 54.181842 1.403826 -3.334196 45.656362 0.000001 -0.000000 0.000000 -8.428813 4.300385 45.527070 2.952853 -4.334744 68.512104 2.854827 -4.294955 67.209410 -0.000001 0.000000 0.000000 -15.700175 -5.514263 85.737343 1.251318 -3.178257 42.971865 2.795182 -4.269483 66.410325 0.000000 -0.000003 0.000000 -47.221923 5.998924 0.244130 38.106226 10.449619 -2.570668 -9.484825 0.663268 1.486536 1.341236 -6.275989 2.257320 -0.000000 0.000001 -0.000000 -46.743984 -8.512472 -11.138997 37.927456 -5.442835 3.394722 -8.813430 -0.637311 4.014270 0.022139 0.000020 -0.037523 0.000000 -0.000001 0.000000 
23.236366 192.430618 5.757034 16.953914 -3.776835 1.237475 5.784380 2.093084 2.881949 11.183366 3.533372 3.417159 11.187655 3.558509 3.407912 0.084850 -1.410280 1.589660 -27.872578 -4.633388 -2.696524 0.000001 0.000000 -0.000001 0.000001 0.000000 -0.000001 0.000001 0.000000 -0.000001 0.448944 -2.912157 -6.957449 -12.123996 -32.974398 -70.001188 0.000002 -48.565135 0.000004 1.392866 2.380508 12.166788 -0.965695 -1.820422 -12.380090 0.002649 0.176386 -1.721372 0.013845 -0.402961 3.935331 0.000001 0.000000 -0.000001 -4.648041 2.016780 -4.850329 16.944898 10.564820 22.956242 -3.627606 28.568627 -1.886745 0.000002 -0.000000 0.000001 -1.286821 -1.448178 -16.496316 0.056169 0.810264 -7.932712 0.013881 -0.403615 3.941846 0.000003 0.000000 0.000000 0.654855 5.272998 -15.563324 0.593855 2.572019 -25.998408 0.142792 1.286886 -12.662775 0.000003 0.000002 0.000001 4.647919 11.789765 -29.937399 0.618200 2.621259 -26.535317 0.178207 1.435400 -14.153593 0.000000 0.000005 -0.000004 -0.297239 10.315896 13.635937 -56.772560 19.909621 52.362143 -0.000007 42.854857 0.000003 42.729301 -11.127533 -18.964679 -4.206682 7.274624 22.719994 0.463411 -2.027059 25.751867 0.002100 -0.140301 1.722550 0.000005 0.000001 -0.000002 25.580949 4.822226 7.591258 -14.876331 -33.649286 0.709497 -2.329646 -10.174146 -6.003396 0.000001 -0.000001 0.000002 -1.567223 6.193188 10.708846 0.992654 -2.876064 38.076754 0.607551 -2.301847 29.566728 0.000002 0.000002 0.000002 -8.252988 4.578637 44.222203 2.933400 -4.327065 68.254436 2.835551 -4.286847 66.951584 -0.000000 -0.000000 0.000000 -14.410038 -4.321304 81.976552 1.330124 -3.260658 44.374923 2.912069 -4.318514 67.971454 0.000003 0.000000 0.000001 -43.642102 5.878730 -0.993522 34.363891 10.522180 -1.605334 -8.297907 1.018541 1.574321 1.354966 -6.284587 2.212472 -0.000000 0.000000 0.000000 -43.075274 -8.338693 -10.857886 34.165231 -6.245325 3.018135 -7.384277 -0.617793 4.521236 0.231024 0.001782 -0.390670 -0.000000 0.000001 0.000000 
